<?xml version="1.0" encoding="UTF-8"?><svg xmlns="http://www.w3.org/2000/svg" xmlns:xlink="http://www.w3.org/1999/xlink" fill-opacity="1" color-rendering="auto" color-interpolation="auto" text-rendering="auto" stroke="black" stroke-linecap="square" width="1099" stroke-miterlimit="10" shape-rendering="auto" stroke-opacity="1" fill="black" stroke-dasharray="none" font-weight="normal" stroke-width="1" height="575" font-family="'Dialog'" font-style="normal" stroke-linejoin="miter" font-size="12px" stroke-dashoffset="0" image-rendering="auto">
  <!--Generated by ySVG 2.5-->
  <defs id="genericDefs"/>
  <g>
    <defs id="defs1">
      <clipPath clipPathUnits="userSpaceOnUse" id="clipPath1">
        <path d="M0 0 L1099 0 L1099 575 L0 575 L0 0 Z"/>
      </clipPath>
      <clipPath clipPathUnits="userSpaceOnUse" id="clipPath2">
        <path d="M-15 -15 L1084 -15 L1084 560 L-15 560 L-15 -15 Z"/>
      </clipPath>
      <clipPath clipPathUnits="userSpaceOnUse" id="clipPath3">
        <path d="M39 112 L39 151 L124 151 L124 112 Z"/>
      </clipPath>
      <clipPath clipPathUnits="userSpaceOnUse" id="clipPath4">
        <path d="M968 35 L968 74 L1053 74 L1053 35 Z"/>
      </clipPath>
      <clipPath clipPathUnits="userSpaceOnUse" id="clipPath5">
        <path d="M493 214 L493 253 L578 253 L578 214 Z"/>
      </clipPath>
      <clipPath clipPathUnits="userSpaceOnUse" id="clipPath6">
        <path d="M469 95 L469 134 L601 134 L601 95 Z"/>
      </clipPath>
      <clipPath clipPathUnits="userSpaceOnUse" id="clipPath7">
        <path d="M15 403 L15 442 L150 442 L150 403 Z"/>
      </clipPath>
      <clipPath clipPathUnits="userSpaceOnUse" id="clipPath8">
        <path d="M475 334 L475 373 L595 373 L595 334 Z"/>
      </clipPath>
      <clipPath clipPathUnits="userSpaceOnUse" id="clipPath9">
        <path d="M480 403 L480 442 L591 442 L591 403 Z"/>
      </clipPath>
    </defs>
    <g fill="white" transform="translate(15,15)" stroke="white">
      <rect x="-15" width="1099" height="575" y="-15" clip-path="url(#clipPath2)" stroke="none"/>
    </g>
    <g fill="rgb(104,176,227)" transform="matrix(1,0,0,1,15,15)" stroke="rgb(104,176,227)">
      <path d="M24.8416 76.9052 L24.8416 166.3825 L140.2678 166.3825 L140.2678 76.9052 ZM25.8416 98.9052 L25.8416 165.3825 L139.2678 165.3825 L139.2678 98.9052 Z" fill-rule="evenodd" clip-path="url(#clipPath2)" stroke="none"/>
    </g>
    <g fill="white" stroke-miterlimit="1.45" font-family="sans-serif" transform="matrix(1,0,0,1,15,15)" stroke-linecap="butt" stroke="white">
      <text x="26.8416" xml:space="preserve" y="91.7332" clip-path="url(#clipPath2)" stroke="none">globalregistry</text>
    </g>
    <g fill="rgb(204,255,255)" transform="matrix(1,0,0,1,15,15)" stroke="rgb(204,255,255)">
      <rect x="40" width="83" height="37" y="113" clip-path="url(#clipPath2)" stroke="none"/>
    </g>
    <g fill="white" transform="matrix(1,0,0,1,15,15)" stroke="white">
      <rect x="39" width="1" height="39" y="112" clip-path="url(#clipPath2)" stroke="none"/>
      <rect x="40" width="83" height="1" y="112" clip-path="url(#clipPath2)" stroke="none"/>
      <rect x="40" y="150" clip-path="url(#clipPath2)" fill="rgb(142,178,178)" width="84" height="1" stroke="none"/>
      <rect x="123" y="112" clip-path="url(#clipPath2)" fill="rgb(142,178,178)" width="1" height="38" stroke="none"/>
    </g>
    <g stroke-miterlimit="1.45" font-size="13px" font-weight="bold" font-family="sans-serif" transform="matrix(1,0,0,1,15,15)" stroke-linecap="butt">
      <text x="51.8416" xml:space="preserve" y="129.3164" clip-path="url(#clipPath3)" stroke="none">Registry</text>
    </g>
    <g fill="rgb(104,176,227)" transform="matrix(1,0,0,1,15,15)" stroke="rgb(104,176,227)">
      <path d="M953.1556 0 L953.1556 89.4774 L1068.5819 89.4774 L1068.5819 0 ZM954.1556 22 L954.1556 88.4774 L1067.5819 88.4774 L1067.5819 22 Z" fill-rule="evenodd" clip-path="url(#clipPath2)" stroke="none"/>
    </g>
    <g fill="white" stroke-miterlimit="1.45" font-family="sans-serif" transform="matrix(1,0,0,1,15,15)" stroke-linecap="butt" stroke="white">
      <text x="955.1556" xml:space="preserve" y="14.8281" clip-path="url(#clipPath2)" stroke="none">harbor</text>
    </g>
    <g fill="rgb(51,102,255)" transform="matrix(1,0,0,1,15,15)" stroke="rgb(51,102,255)">
      <rect x="969" width="83" height="37" y="36" clip-path="url(#clipPath2)" stroke="none"/>
      <rect x="968" y="35" clip-path="url(#clipPath2)" fill="rgb(72,145,255)" width="1" height="39" stroke="none"/>
      <rect x="969" y="35" clip-path="url(#clipPath2)" fill="rgb(72,145,255)" width="83" height="1" stroke="none"/>
      <rect x="969" y="73" clip-path="url(#clipPath2)" fill="rgb(35,71,178)" width="84" height="1" stroke="none"/>
      <rect x="1052" y="35" clip-path="url(#clipPath2)" fill="rgb(35,71,178)" width="1" height="38" stroke="none"/>
    </g>
    <g stroke-miterlimit="1.45" font-size="13px" font-weight="bold" font-family="sans-serif" transform="matrix(1,0,0,1,15,15)" stroke-linecap="butt">
      <text x="980.1556" xml:space="preserve" y="52.4112" clip-path="url(#clipPath4)" stroke="none">Registry</text>
    </g>
    <g fill="rgb(104,176,227)" transform="matrix(1,0,0,1,15,15)" stroke="rgb(104,176,227)">
      <path d="M478.1582 179.6048 L478.1582 269.0822 L593.5845 269.0822 L593.5845 179.6048 ZM479.1582 201.6048 L479.1582 268.0822 L592.5845 268.0822 L592.5845 201.6048 Z" fill-rule="evenodd" clip-path="url(#clipPath2)" stroke="none"/>
    </g>
    <g fill="white" stroke-miterlimit="1.45" font-family="sans-serif" transform="matrix(1,0,0,1,15,15)" stroke-linecap="butt" stroke="white">
      <text x="480.1582" xml:space="preserve" y="194.4328" clip-path="url(#clipPath2)" stroke="none">config/registry</text>
    </g>
    <g fill="rgb(51,102,255)" transform="matrix(1,0,0,1,15,15)" stroke="rgb(51,102,255)">
      <rect x="494" width="83" height="37" y="215" clip-path="url(#clipPath2)" stroke="none"/>
      <rect x="493" y="214" clip-path="url(#clipPath2)" fill="rgb(72,145,255)" width="1" height="39" stroke="none"/>
      <rect x="494" y="214" clip-path="url(#clipPath2)" fill="rgb(72,145,255)" width="83" height="1" stroke="none"/>
      <rect x="494" y="252" clip-path="url(#clipPath2)" fill="rgb(35,71,178)" width="84" height="1" stroke="none"/>
      <rect x="577" y="214" clip-path="url(#clipPath2)" fill="rgb(35,71,178)" width="1" height="38" stroke="none"/>
    </g>
    <g stroke-miterlimit="1.45" font-size="13px" font-weight="bold" font-family="sans-serif" transform="matrix(1,0,0,1,15,15)" stroke-linecap="butt">
      <text x="505.1582" xml:space="preserve" y="232.016" clip-path="url(#clipPath5)" stroke="none">Registry</text>
    </g>
    <g fill="rgb(104,176,227)" transform="matrix(1,0,0,1,15,15)" stroke="rgb(104,176,227)">
      <path d="M454.3799 60.1274 L454.3799 149.6048 L617.3628 149.6048 L617.3628 60.1274 ZM455.3799 82.1274 L455.3799 148.6048 L616.3628 148.6048 L616.3628 82.1274 Z" fill-rule="evenodd" clip-path="url(#clipPath2)" stroke="none"/>
    </g>
    <g fill="white" stroke-miterlimit="1.45" font-family="sans-serif" transform="matrix(1,0,0,1,15,15)" stroke-linecap="butt" stroke="white">
      <text x="456.3799" xml:space="preserve" y="74.9555" clip-path="url(#clipPath2)" stroke="none">reconciler</text>
    </g>
    <g fill="rgb(51,102,255)" transform="matrix(1,0,0,1,15,15)" stroke="rgb(51,102,255)">
      <rect x="470" width="130" height="37" y="96" clip-path="url(#clipPath2)" stroke="none"/>
      <rect x="469" y="95" clip-path="url(#clipPath2)" fill="rgb(72,145,255)" width="1" height="39" stroke="none"/>
      <rect x="470" y="95" clip-path="url(#clipPath2)" fill="rgb(72,145,255)" width="130" height="1" stroke="none"/>
      <rect x="470" y="133" clip-path="url(#clipPath2)" fill="rgb(35,71,178)" width="131" height="1" stroke="none"/>
      <rect x="600" y="95" clip-path="url(#clipPath2)" fill="rgb(35,71,178)" width="1" height="38" stroke="none"/>
    </g>
    <g stroke-miterlimit="1.45" font-size="13px" font-weight="bold" font-family="sans-serif" transform="matrix(1,0,0,1,15,15)" stroke-linecap="butt">
      <text x="481.3799" xml:space="preserve" y="112.5386" clip-path="url(#clipPath6)" stroke="none">RegistryStatus</text>
    </g>
    <g fill="rgb(255,204,0)" transform="matrix(1,0,0,1,15,15)" stroke="rgb(255,204,0)">
      <path d="M195.2775 103.4718 L405.1717 103.4718 L405.1717 118.4718 L420.1717 118.4718 L420.1717 160.16 L195.2775 160.16 Z" stroke="none" clip-path="url(#clipPath2)"/>
      <path fill="white" d="M405.1717 103.4718 L405.1717 118.4718 L420.1717 118.4718 Z" clip-path="url(#clipPath2)" fill-rule="evenodd" stroke="none"/>
    </g>
    <g stroke-linecap="butt" transform="matrix(1,0,0,1,15,15)" stroke-miterlimit="1.45">
      <path fill="none" d="M195.2775 103.4718 L405.1717 103.4718 L405.1717 118.4718 L420.1717 118.4718 L420.1717 160.16 L195.2775 160.16 Z" clip-path="url(#clipPath2)"/>
      <path fill="none" d="M405.1717 103.4718 L405.1717 118.4718 L420.1717 118.4718 Z" clip-path="url(#clipPath2)" fill-rule="evenodd"/>
      <text x="222.8107" xml:space="preserve" y="128.2999" clip-path="url(#clipPath2)" font-family="sans-serif" stroke="none">RegistryStatus is created</text>
      <text x="207.2775" xml:space="preserve" y="144.644" clip-path="url(#clipPath2)" font-family="sans-serif" stroke="none">using the methods of Registry</text>
    </g>
    <g fill="rgb(255,204,0)" transform="matrix(1,0,0,1,15,15)" stroke="rgb(255,204,0)">
      <path d="M202.149 16.7833 L398.3002 16.7833 L398.3002 31.7833 L413.3002 31.7833 L413.3002 73.4715 L202.149 73.4715 Z" stroke="none" clip-path="url(#clipPath2)"/>
      <path fill="white" d="M398.3002 16.7833 L398.3002 31.7833 L413.3002 31.7833 Z" clip-path="url(#clipPath2)" fill-rule="evenodd" stroke="none"/>
    </g>
    <g stroke-linecap="butt" transform="matrix(1,0,0,1,15,15)" stroke-miterlimit="1.45">
      <path fill="none" d="M202.149 16.7833 L398.3002 16.7833 L398.3002 31.7833 L413.3002 31.7833 L413.3002 73.4715 L202.149 73.4715 Z" clip-path="url(#clipPath2)"/>
      <path fill="none" d="M398.3002 16.7833 L398.3002 31.7833 L413.3002 31.7833 Z" clip-path="url(#clipPath2)" fill-rule="evenodd"/>
      <text x="214.149" xml:space="preserve" y="41.6114" clip-path="url(#clipPath2)" font-family="sans-serif" stroke="none">harbor.Registry implements</text>
      <text x="230.5626" xml:space="preserve" y="57.9555" clip-path="url(#clipPath2)" font-family="sans-serif" stroke="none">globalregistry.Registry</text>
    </g>
    <g fill="rgb(255,204,0)" transform="matrix(1,0,0,1,15,15)" stroke="rgb(255,204,0)">
      <path d="M174.8867 193.2741 L425.5625 193.2741 L425.5625 208.2741 L440.5625 208.2741 L440.5625 249.9624 L174.8867 249.9624 Z" stroke="none" clip-path="url(#clipPath2)"/>
      <path fill="white" d="M425.5625 193.2741 L425.5625 208.2741 L440.5625 208.2741 Z" clip-path="url(#clipPath2)" fill-rule="evenodd" stroke="none"/>
    </g>
    <g stroke-linecap="butt" transform="matrix(1,0,0,1,15,15)" stroke-miterlimit="1.45">
      <path fill="none" d="M174.8867 193.2741 L425.5625 193.2741 L425.5625 208.2741 L440.5625 208.2741 L440.5625 249.9624 L174.8867 249.9624 Z" clip-path="url(#clipPath2)"/>
      <path fill="none" d="M425.5625 193.2741 L425.5625 208.2741 L440.5625 208.2741 Z" clip-path="url(#clipPath2)" fill-rule="evenodd"/>
      <text x="186.8867" xml:space="preserve" y="218.1022" clip-path="url(#clipPath2)" font-family="sans-serif" stroke="none">config/registry.Registry implements</text>
      <text x="230.5626" xml:space="preserve" y="234.4464" clip-path="url(#clipPath2)" font-family="sans-serif" stroke="none">globalregistry.Registry</text>
      <path fill="none" d="M125.302 131.8159 L195.2434 131.8159" clip-path="url(#clipPath2)"/>
      <path fill="none" d="M420.2108 131.8159 L430.1717 131.8159 L430.1717 115.0381 L469.3416 115.0381" clip-path="url(#clipPath2)"/>
      <path fill="none" stroke-dasharray="6,2" d="M125.3167 118.7716 L150.2678 118.7716 L150.2678 45.1274 L187.1237 45.1274" clip-path="url(#clipPath2)"/>
      <path fill="white" stroke-dasharray="6,2" d="M202.1237 45.1274 L186.1237 39.1274 L186.1237 51.1274 Z" clip-path="url(#clipPath2)" stroke="none"/>
      <path fill="none" d="M202.1237 45.1274 L186.1237 39.1274 L186.1237 51.1274 Z" clip-path="url(#clipPath2)"/>
      <path fill="none" stroke-dasharray="6,2" d="M413.3341 45.1274 L953.1218 45.1275" clip-path="url(#clipPath2)"/>
      <path fill="white" stroke-dasharray="6,2" d="M968.1218 45.1275 L952.1218 39.1275 L952.1218 51.1275 Z" clip-path="url(#clipPath2)" stroke="none"/>
      <path fill="none" d="M968.1218 45.1275 L952.1218 39.1275 L952.1218 51.1275 Z" clip-path="url(#clipPath2)"/>
      <path fill="none" stroke-dasharray="6,2" d="M125.3167 144.8601 L150.2678 144.8601 L150.2678 221.6183 L159.8386 221.6183" clip-path="url(#clipPath2)"/>
      <path fill="white" stroke-dasharray="6,2" d="M174.8386 221.6183 L158.8386 215.6183 L158.8386 227.6183 Z" clip-path="url(#clipPath2)" stroke="none"/>
      <path fill="none" d="M174.8386 221.6183 L158.8386 215.6183 L158.8386 227.6183 Z" clip-path="url(#clipPath2)"/>
      <path fill="none" stroke-dasharray="6,2" d="M440.6016 221.6183 L450.5625 221.6183 L450.5625 224.7323 L478.1166 224.7323" clip-path="url(#clipPath2)"/>
      <path fill="white" stroke-dasharray="6,2" d="M493.1166 224.7323 L477.1166 218.7323 L477.1166 230.7323 Z" clip-path="url(#clipPath2)" stroke="none"/>
      <path fill="none" d="M493.1166 224.7323 L477.1166 218.7323 L477.1166 230.7323 Z" clip-path="url(#clipPath2)"/>
    </g>
    <g fill="rgb(104,176,227)" transform="matrix(1,0,0,1,15,15)" stroke="rgb(104,176,227)">
      <path d="M0 368.2151 L0 457.6925 L165.1094 457.6925 L165.1094 368.2151 ZM1 390.2151 L1 456.6925 L164.1094 456.6925 L164.1094 390.2151 Z" fill-rule="evenodd" clip-path="url(#clipPath2)" stroke="none"/>
    </g>
    <g fill="white" stroke-miterlimit="1.45" font-family="sans-serif" transform="matrix(1,0,0,1,15,15)" stroke-linecap="butt" stroke="white">
      <text x="2" xml:space="preserve" y="383.0432" clip-path="url(#clipPath2)" stroke="none">config</text>
    </g>
    <g fill="rgb(51,102,255)" transform="matrix(1,0,0,1,15,15)" stroke="rgb(51,102,255)">
      <rect x="16" width="133" height="37" y="404" clip-path="url(#clipPath2)" stroke="none"/>
      <rect x="15" y="403" clip-path="url(#clipPath2)" fill="rgb(72,145,255)" width="1" height="39" stroke="none"/>
      <rect x="16" y="403" clip-path="url(#clipPath2)" fill="rgb(72,145,255)" width="133" height="1" stroke="none"/>
      <rect x="16" y="441" clip-path="url(#clipPath2)" fill="rgb(35,71,178)" width="134" height="1" stroke="none"/>
      <rect x="149" y="403" clip-path="url(#clipPath2)" fill="rgb(35,71,178)" width="1" height="38" stroke="none"/>
    </g>
    <g stroke-miterlimit="1.45" font-size="13px" font-weight="bold" font-family="sans-serif" transform="matrix(1,0,0,1,15,15)" stroke-linecap="butt">
      <text x="27" xml:space="preserve" y="420.6263" clip-path="url(#clipPath7)" stroke="none">ApiObjectStore</text>
    </g>
    <g fill="rgb(255,204,0)" transform="matrix(1,0,0,1,15,15)" stroke="rgb(255,204,0)">
      <path d="M622.3628 206.1714 L918.1556 206.1714 L918.1556 221.1714 L933.1556 221.1714 L933.1556 262.8596 L622.3628 262.8596 Z" stroke="none" clip-path="url(#clipPath2)"/>
      <path fill="white" d="M918.1556 206.1714 L918.1556 221.1714 L933.1556 221.1714 Z" clip-path="url(#clipPath2)" fill-rule="evenodd" stroke="none"/>
    </g>
    <g stroke-linecap="butt" transform="matrix(1,0,0,1,15,15)" stroke-miterlimit="1.45">
      <path fill="none" d="M622.3628 206.1714 L918.1556 206.1714 L918.1556 221.1714 L933.1556 221.1714 L933.1556 262.8596 L622.3628 262.8596 Z" clip-path="url(#clipPath2)"/>
      <path fill="none" d="M918.1556 206.1714 L918.1556 221.1714 L933.1556 221.1714 Z" clip-path="url(#clipPath2)" fill-rule="evenodd"/>
      <text x="634.3628" xml:space="preserve" y="230.9995" clip-path="url(#clipPath2)" font-family="sans-serif" stroke="none">config/registry.Registry can tranform itself</text>
      <text x="642.4513" xml:space="preserve" y="247.3436" clip-path="url(#clipPath2)" font-family="sans-serif" stroke="none">to provider-specific (e.g. harbor) Registry</text>
    </g>
    <g fill="rgb(255,204,0)" transform="matrix(1,0,0,1,15,15)" stroke="rgb(255,204,0)">
      <path d="M190.1094 279.9626 L410.3399 279.9626 L410.3399 294.9626 L425.3399 294.9626 L425.3399 336.6508 L190.1094 336.6508 Z" stroke="none" clip-path="url(#clipPath2)"/>
      <path fill="white" d="M410.3399 279.9626 L410.3399 294.9626 L425.3399 294.9626 Z" clip-path="url(#clipPath2)" fill-rule="evenodd" stroke="none"/>
    </g>
    <g stroke-linecap="butt" transform="matrix(1,0,0,1,15,15)" stroke-miterlimit="1.45">
      <path fill="none" d="M190.1094 279.9626 L410.3399 279.9626 L410.3399 294.9626 L425.3399 294.9626 L425.3399 336.6508 L190.1094 336.6508 Z" clip-path="url(#clipPath2)"/>
      <path fill="none" d="M410.3399 279.9626 L410.3399 294.9626 L425.3399 294.9626 Z" clip-path="url(#clipPath2)" fill-rule="evenodd"/>
      <text x="210.796" xml:space="preserve" y="304.7907" clip-path="url(#clipPath2)" font-family="sans-serif" stroke="none">ApiObjectStore can generate</text>
      <text x="202.1094" xml:space="preserve" y="321.1348" clip-path="url(#clipPath2)" font-family="sans-serif" stroke="none">config/registry.Registry objects</text>
    </g>
    <g fill="lime" transform="matrix(1,0,0,1,15,15)" stroke="lime">
      <path d="M473.1505 487.6928 L583.5922 487.6928 L583.5922 502.6928 L598.5922 502.6928 L598.5922 544.381 L473.1505 544.381 Z" stroke="none" clip-path="url(#clipPath2)"/>
      <path fill="white" d="M583.5922 487.6928 L583.5922 502.6928 L598.5922 502.6928 Z" clip-path="url(#clipPath2)" fill-rule="evenodd" stroke="none"/>
    </g>
    <g stroke-linecap="butt" transform="matrix(1,0,0,1,15,15)" stroke-miterlimit="1.45">
      <path fill="none" d="M473.1505 487.6928 L583.5922 487.6928 L583.5922 502.6928 L598.5922 502.6928 L598.5922 544.381 L473.1505 544.381 Z" clip-path="url(#clipPath2)"/>
      <path fill="none" d="M583.5922 487.6928 L583.5922 502.6928 L598.5922 502.6928 Z" clip-path="url(#clipPath2)" fill-rule="evenodd"/>
      <text x="485.1505" xml:space="preserve" y="512.5209" clip-path="url(#clipPath2)" font-family="sans-serif" stroke="none">a_registry.yaml</text>
      <text x="487.9132" xml:space="preserve" y="528.865" clip-path="url(#clipPath2)" font-family="sans-serif" stroke="none">a_project.yaml</text>
      <path fill="none" stroke-dasharray="6,2" d="M578.6273 234.5155 L617.3201 234.5155" clip-path="url(#clipPath2)"/>
      <path stroke-dasharray="6,2" d="M621.3201 234.5155 L609.3201 228.5155 L621.3201 234.5155 L609.3201 240.5155 Z" clip-path="url(#clipPath2)" stroke="none"/>
      <path fill="none" stroke-miterlimit="10" d="M621.3201 234.5155 L609.3201 228.5155 L621.3201 234.5155 L609.3201 240.5155 Z" clip-path="url(#clipPath2)" stroke-linecap="square"/>
      <path fill="none" stroke-dasharray="6,2" d="M933.1947 234.5155 L943.1556 234.5155 L943.1556 64.6939 L963.1068 64.6939" clip-path="url(#clipPath2)"/>
      <path stroke-dasharray="6,2" d="M967.1068 64.6939 L955.1068 58.6939 L967.1068 64.6939 L955.1068 70.6939 Z" clip-path="url(#clipPath2)" stroke="none"/>
      <path fill="none" stroke-miterlimit="10" d="M967.1068 64.6939 L955.1068 58.6939 L967.1068 64.6939 L955.1068 70.6939 Z" clip-path="url(#clipPath2)" stroke-linecap="square"/>
      <path fill="none" stroke-dasharray="6,2" d="M150.1582 410.0815 L175.1094 410.0815 L175.1094 308.3067 L185.0801 308.3067" clip-path="url(#clipPath2)"/>
      <path stroke-dasharray="6,2" d="M189.0801 308.3067 L177.0801 302.3067 L189.0801 308.3067 L177.0801 314.3067 Z" clip-path="url(#clipPath2)" stroke="none"/>
      <path fill="none" stroke-miterlimit="10" d="M189.0801 308.3067 L177.0801 302.3067 L189.0801 308.3067 L177.0801 314.3067 Z" clip-path="url(#clipPath2)" stroke-linecap="square"/>
      <path fill="none" stroke-dasharray="6,2" d="M425.3891 308.3067 L450.5625 308.3067 L450.5625 244.2987 L488.1166 244.2987" clip-path="url(#clipPath2)"/>
      <path stroke-dasharray="6,2" d="M492.1166 244.2987 L480.1166 238.2987 L492.1166 244.2987 L480.1166 250.2987 Z" clip-path="url(#clipPath2)" stroke="none"/>
      <path fill="none" stroke-miterlimit="10" d="M492.1166 244.2987 L480.1166 238.2987 L492.1166 244.2987 L480.1166 250.2987 Z" clip-path="url(#clipPath2)" stroke-linecap="square"/>
    </g>
    <g fill="rgb(104,176,227)" transform="matrix(1,0,0,1,15,15)" stroke="rgb(104,176,227)">
      <path d="M460.5625 299.0822 L460.5625 457.6925 L611.1802 457.6925 L611.1802 299.0822 ZM461.5625 321.0822 L461.5625 456.6925 L610.1802 456.6925 L610.1802 321.0822 Z" fill-rule="evenodd" clip-path="url(#clipPath2)" stroke="none"/>
    </g>
    <g fill="white" stroke-miterlimit="1.45" font-family="sans-serif" transform="matrix(1,0,0,1,15,15)" stroke-linecap="butt" stroke="white">
      <text x="462.5625" xml:space="preserve" y="313.9102" clip-path="url(#clipPath2)" stroke="none">globalregistry/api</text>
    </g>
    <g fill="rgb(51,102,255)" transform="matrix(1,0,0,1,15,15)" stroke="rgb(51,102,255)">
      <rect x="476" width="118" height="37" y="335" clip-path="url(#clipPath2)" stroke="none"/>
      <rect x="475" y="334" clip-path="url(#clipPath2)" fill="rgb(72,145,255)" width="1" height="39" stroke="none"/>
      <rect x="476" y="334" clip-path="url(#clipPath2)" fill="rgb(72,145,255)" width="118" height="1" stroke="none"/>
      <rect x="476" y="372" clip-path="url(#clipPath2)" fill="rgb(35,71,178)" width="119" height="1" stroke="none"/>
      <rect x="594" y="334" clip-path="url(#clipPath2)" fill="rgb(35,71,178)" width="1" height="38" stroke="none"/>
    </g>
    <g stroke-miterlimit="1.45" font-size="13px" font-weight="bold" font-family="sans-serif" transform="matrix(1,0,0,1,15,15)" stroke-linecap="butt">
      <text x="487.5625" xml:space="preserve" y="351.4933" clip-path="url(#clipPath8)" stroke="none">RegistrySpec</text>
    </g>
    <g fill="rgb(51,102,255)" transform="matrix(1,0,0,1,15,15)" stroke="rgb(51,102,255)">
      <rect x="481" width="109" height="37" y="404" clip-path="url(#clipPath2)" stroke="none"/>
      <rect x="480" y="403" clip-path="url(#clipPath2)" fill="rgb(72,145,255)" width="1" height="39" stroke="none"/>
      <rect x="481" y="403" clip-path="url(#clipPath2)" fill="rgb(72,145,255)" width="109" height="1" stroke="none"/>
      <rect x="481" y="441" clip-path="url(#clipPath2)" fill="rgb(35,71,178)" width="110" height="1" stroke="none"/>
      <rect x="590" y="403" clip-path="url(#clipPath2)" fill="rgb(35,71,178)" width="1" height="38" stroke="none"/>
    </g>
    <g stroke-miterlimit="1.45" font-size="13px" font-weight="bold" font-family="sans-serif" transform="matrix(1,0,0,1,15,15)" stroke-linecap="butt">
      <text x="492.2439" xml:space="preserve" y="420.6263" clip-path="url(#clipPath9)" stroke="none">ProjectSpec</text>
    </g>
    <g fill="rgb(255,204,0)" transform="matrix(1,0,0,1,15,15)" stroke="rgb(255,204,0)">
      <path d="M223.94 487.6928 L376.5092 487.6928 L376.5092 502.6928 L391.5092 502.6928 L391.5092 544.381 L223.94 544.381 Z" stroke="none" clip-path="url(#clipPath2)"/>
      <path fill="white" d="M376.5092 487.6928 L376.5092 502.6928 L391.5092 502.6928 Z" clip-path="url(#clipPath2)" fill-rule="evenodd" stroke="none"/>
    </g>
    <g stroke-linecap="butt" transform="matrix(1,0,0,1,15,15)" stroke-miterlimit="1.45">
      <path fill="none" d="M223.94 487.6928 L376.5092 487.6928 L376.5092 502.6928 L391.5092 502.6928 L391.5092 544.381 L223.94 544.381 Z" clip-path="url(#clipPath2)"/>
      <path fill="none" d="M376.5092 487.6928 L376.5092 502.6928 L391.5092 502.6928 Z" clip-path="url(#clipPath2)" fill-rule="evenodd"/>
      <text x="235.94" xml:space="preserve" y="512.5209" clip-path="url(#clipPath2)" font-family="sans-serif" stroke="none">ApiObjectStore reads</text>
      <text x="258.1193" xml:space="preserve" y="528.865" clip-path="url(#clipPath2)" font-family="sans-serif" stroke="none">the config files</text>
    </g>
    <g fill="rgb(255,204,0)" transform="matrix(1,0,0,1,15,15)" stroke="rgb(255,204,0)">
      <path d="M220.3687 394.7817 L380.0805 394.7817 L380.0805 409.7817 L395.0805 409.7817 L395.0805 451.4699 L220.3687 451.4699 Z" stroke="none" clip-path="url(#clipPath2)"/>
      <path fill="white" d="M380.0805 394.7817 L380.0805 409.7817 L395.0805 409.7817 Z" clip-path="url(#clipPath2)" fill-rule="evenodd" stroke="none"/>
    </g>
    <g stroke-linecap="butt" transform="matrix(1,0,0,1,15,15)" stroke-miterlimit="1.45">
      <path fill="none" d="M220.3687 394.7817 L380.0805 394.7817 L380.0805 409.7817 L395.0805 409.7817 L395.0805 451.4699 L220.3687 451.4699 Z" clip-path="url(#clipPath2)"/>
      <path fill="none" d="M380.0805 394.7817 L380.0805 409.7817 L395.0805 409.7817 Z" clip-path="url(#clipPath2)" fill-rule="evenodd"/>
      <text x="232.3687" xml:space="preserve" y="419.6098" clip-path="url(#clipPath2)" font-family="sans-serif" stroke="none">ApiObjectStore parses</text>
      <text x="258.1193" xml:space="preserve" y="435.9539" clip-path="url(#clipPath2)" font-family="sans-serif" stroke="none">the config files</text>
      <path fill="none" d="M150.1582 436.1701 L175.1094 436.1701 L175.1094 516.0369 L223.8923 516.0369" clip-path="url(#clipPath2)"/>
      <path fill="none" d="M391.5491 516.0369 L473.1107 516.0369" clip-path="url(#clipPath2)"/>
      <path fill="none" d="M150.1437 423.1258 L220.3344 423.1258" clip-path="url(#clipPath2)"/>
      <path fill="none" d="M395.1221 423.1258 L480.2024 423.1258" clip-path="url(#clipPath2)"/>
    </g>
  </g>
</svg>
